<svg width="3453" height="1060" viewBox="0 0 3453 1060" fill="none" xmlns="http://www.w3.org/2000/svg">
<g clip-path="url(#clip0_26_5)">
<rect width="892.927" height="1058.15" transform="translate(0 0.92308)" fill="#6FBCB3"/>
<path d="M941.776 16.8187L957.596 29.1228C939.433 65.4492 873.972 146.429 755.457 152.164C646.478 157.437 607.808 148.648 595.503 148.648C533.631 183.803 485.352 437.502 468.947 559.957C567.38 554.333 664.641 507.226 700.967 484.375L699.21 538.865C678.117 596.518 526.366 630.853 453.127 640.813C449.612 715.81 422.543 892.872 342.39 1001.15C262.238 1109.42 141.423 1121.26 91.0348 1113.64C31.8578 1106.61 -63.2786 1041.34 -38.6704 946.421C-15.0754 855.411 70.3089 860.292 91.0348 892.168C126.556 960.482 52.9506 991.187 11.9369 987.086C24.8269 1012.87 63.9958 1061.41 110.737 1057.16C168.742 1051.88 196.319 1028.27 224.989 992.121C265.417 941.147 323.055 723.189 323.055 656.633C263.995 653.82 169.547 694.131 129.705 714.638V682.999C169.078 598.628 291.416 576.363 347.663 575.777C361.725 447.463 402.52 361.096 444.339 287.509C474.916 233.703 504.468 176.534 533.983 145.133L541.381 137.864L546.654 132.591C528.374 114.311 420.097 107.983 372.272 104.705C346.273 104.705 266.808 99.432 140.251 141.618C13.6946 183.803 -7.39814 293.954 -2.12495 343.757C0.804604 395.903 28.1234 485.895 145.524 458.009C258.483 431.178 269.151 310.36 261.535 257.628H314.267C314.267 285.514 312.876 364.612 286.143 417.581C241.55 505.94 132.048 524.803 78.7306 521.287C19.5537 513.671 -91.4177 453.79 -61.8878 275.205C-32.3579 96.6196 110.956 28.5369 178.921 16.8187C265.417 -0.9963 384.943 -25.6044 556.833 16.8187C660.671 42.4461 853.89 35.5678 941.776 16.8187Z" fill="#2F484F"/>
</g>
<path d="M2072.45 659.696L2072.48 659.762L2072.51 659.826C2083.36 680.772 2098.59 697.169 2118.18 708.845C2137.86 720.574 2160.93 726.304 2187.13 726.304C2213.33 726.304 2236.4 720.574 2256.07 708.845C2275.67 697.16 2290.75 680.741 2301.24 659.76C2312.1 638.41 2317.4 613.549 2317.4 585.387C2317.4 557.249 2312.11 532.558 2301.24 511.545C2290.76 490.231 2275.69 473.625 2256.07 461.929C2236.4 450.2 2213.33 444.47 2187.13 444.47C2160.93 444.47 2137.86 450.2 2118.18 461.929C2098.56 473.624 2083.33 490.223 2072.49 511.524L2072.48 511.545L2072.47 511.567C2061.97 532.573 2056.85 557.254 2056.85 585.387C2056.85 613.524 2061.97 638.361 2072.45 659.696ZM2239.86 654.934L2239.85 654.945C2227.11 670.23 2209.8 678.013 2187.13 678.013C2164.85 678.013 2147.5 670.26 2134.37 654.907C2121.24 639.195 2114.18 616.174 2114.18 584.855C2114.18 553.884 2121.24 531.239 2134.35 515.893C2147.48 500.523 2164.84 492.761 2187.13 492.761C2209.8 492.761 2227.11 500.544 2239.85 515.83L2239.87 515.862L2239.9 515.893C2253.01 531.239 2260.07 553.884 2260.07 584.855C2260.07 616.191 2253 639.221 2239.86 654.934Z" fill="#FBEECD" stroke="#FBEECD" stroke-width="13.711"/>
<path d="M1983.33 714.66V721.516H1990.19H2033.28H2040.13V714.66V456.114V449.258H2033.28H1990.19H1983.33V456.114V714.66Z" fill="#FBEECD" stroke="#FBEECD" stroke-width="13.711"/>
<path d="M1780.41 706.915L1780.44 706.935L1780.46 706.955C1798.79 719.932 1820.43 726.304 1845.07 726.304C1869.25 726.304 1890.61 720.526 1908.88 708.733C1927.42 696.994 1941.56 680.537 1951.29 659.586C1961.38 638.278 1966.31 613.481 1966.31 585.387C1966.31 556.978 1961.4 532.171 1951.29 511.189C1941.59 489.935 1927.64 473.446 1909.4 462.031C1891.11 450.234 1869.57 444.471 1845.07 444.471C1820.47 444.471 1799.01 450.64 1781.02 463.271C1774.69 467.718 1769.06 472.72 1764.15 478.269V339.608V332.753H1757.3H1714.2H1707.35V339.608V714.66V721.516H1714.2H1756.23H1763.09V714.66V690.894C1768.07 696.824 1773.85 702.168 1780.41 706.915ZM1888.76 654.934L1888.75 654.945C1876.01 670.23 1858.71 678.014 1836.03 678.014C1813.76 678.014 1796.4 670.26 1783.28 654.907C1770.13 639.183 1763.09 616.329 1763.09 585.387C1763.09 554.038 1770.16 531.227 1783.26 515.893C1796.38 500.523 1813.74 492.761 1836.03 492.761C1858.71 492.761 1876.01 500.544 1888.75 515.83L1888.78 515.862L1888.8 515.893C1901.9 531.227 1908.97 554.038 1908.97 585.387C1908.97 616.347 1901.92 639.209 1888.76 654.934Z" fill="#FBEECD" stroke="#FBEECD" stroke-width="13.711"/>
<path d="M1510.37 715.441L1510.46 715.488L1510.56 715.533C1525.77 722.761 1542.76 726.304 1561.38 726.304C1576.77 726.304 1590.88 723.484 1603.58 717.709C1615.98 712.075 1626.43 704.178 1634.85 694.023V714.66V721.516H1641.71H1682.14H1688.99V714.66V551.872C1688.99 528.204 1685.37 508.287 1677.67 492.504C1669.94 476.273 1658.04 464.15 1642.11 456.366C1626.33 448.295 1606.74 444.47 1583.72 444.47C1571.53 444.47 1558.86 445.763 1545.71 448.32C1532.51 450.886 1519.84 454.737 1507.71 459.876C1495.61 464.65 1484.7 470.375 1475.02 477.077L1470.23 480.392L1472.73 485.653L1487.62 517.04L1490.98 524.125L1497.56 519.846C1512.35 510.209 1526.64 503.435 1540.43 499.401L1540.5 499.379L1540.57 499.356C1554.43 494.963 1568.8 492.761 1583.72 492.761C1603 492.761 1615.21 497.508 1622.23 505.367L1622.27 505.413L1622.31 505.459C1629.43 513.142 1633.79 526.785 1633.79 548.148V557.784H1623.62C1584.41 557.784 1553.04 560.094 1529.69 564.837L1529.68 564.839L1529.67 564.841C1506.62 569.597 1488.86 577.848 1477.56 590.368L1477.51 590.414L1477.47 590.46C1466.51 603.051 1461.42 619.903 1461.42 640.182C1461.42 656.413 1465.89 671.234 1474.84 684.454C1483.68 697.533 1495.58 707.858 1510.37 715.441ZM1624.15 599.69H1633.79V608.795C1633.79 623.065 1630.81 635.383 1625.05 645.943L1625.01 646.014L1624.97 646.086C1619.51 656.7 1611.85 664.975 1601.95 671.044L1601.91 671.07L1601.86 671.097C1592.46 677.056 1581.35 680.141 1568.29 680.141C1552.18 680.141 1540.14 675.9 1531.42 668.101C1523.03 660.285 1518.76 650.29 1518.76 637.522C1518.76 629.949 1520.33 624.201 1523.04 619.876C1525.59 615.786 1530.26 611.94 1537.95 608.739C1545.57 605.561 1556.35 603.172 1570.56 601.786C1584.8 600.397 1602.65 599.69 1624.15 599.69Z" fill="#FBEECD" stroke="#FBEECD" stroke-width="13.711"/>
<path d="M1218.38 714.66V721.516H1225.23H1282.56H1289.42V714.66V550.748H1446.54H1453.39V543.892V507.185V500.329H1446.54H1289.42V383.171H1457.18H1464.03V376.316V339.608V332.753H1457.18H1225.23H1218.38V339.608V714.66Z" fill="#FBEECD" stroke="#FBEECD" stroke-width="13.711"/>
<path d="M1549.44 380.955L1543.47 386.826H1551.85H1579.5H1580.66L1581.59 386.117L1644.52 337.796L1652.53 331.649H1642.43H1600.95H1599.55L1598.55 332.634L1549.44 380.955Z" fill="#FBEECD" stroke="#FBEECD" stroke-width="6.85552"/>
<path d="M3200.9 666.552L3200.93 666.617L3200.97 666.682C3211.81 687.627 3227.05 704.024 3246.63 715.701C3266.31 727.43 3289.38 733.159 3315.58 733.159C3341.78 733.159 3364.85 727.43 3384.52 715.701C3404.13 704.015 3419.2 687.597 3429.69 666.616C3440.55 645.265 3445.86 620.404 3445.86 592.243C3445.86 564.105 3440.56 539.414 3429.69 518.4C3419.21 497.087 3404.14 480.481 3384.52 468.785C3364.85 457.055 3341.78 451.326 3315.58 451.326C3289.38 451.326 3266.31 457.055 3246.63 468.785C3227.02 480.48 3211.78 497.079 3200.94 518.379L3200.93 518.401L3200.92 518.422C3190.42 539.429 3185.3 564.11 3185.3 592.243C3185.3 620.38 3190.42 645.217 3200.9 666.552ZM3368.31 661.79L3368.3 661.8C3355.56 677.085 3338.26 684.869 3315.58 684.869C3293.3 684.869 3275.95 677.115 3262.83 661.763C3249.69 646.051 3242.64 623.029 3242.64 591.711C3242.64 560.739 3249.7 538.094 3262.81 522.749C3275.93 507.379 3293.29 499.616 3315.58 499.616C3338.26 499.616 3355.56 507.4 3368.3 522.685L3368.33 522.717L3368.35 522.749C3381.46 538.094 3388.52 560.739 3388.52 591.711C3388.52 623.047 3381.46 646.077 3368.31 661.79Z" fill="#FBEECD" stroke="#FBEECD" stroke-width="13.711"/>
<path d="M2976.34 721.516V728.371H2983.2H3184.82H3191.68V721.516V688.001V681.145H3184.82H3043.75L3184.43 495.842L3185.83 494.004V491.697V462.969V456.114H3178.97H2983.2H2976.34V462.969V496.485V503.34H2983.2H3115.69L2977.7 688.695L2976.34 690.517V692.789V721.516Z" fill="#FBEECD" stroke="#FBEECD" stroke-width="13.711"/>
<path d="M2764.26 721.516V728.371H2771.11H2972.74H2979.59V721.516V688.001V681.145H2972.74H2831.25L2972.34 495.85L2973.74 494.01V491.697V462.969V456.114H2966.89H2771.11H2764.26V462.969V496.485V503.34H2771.11H2903.19L2765.61 688.703L2764.26 690.522V692.789V721.516Z" fill="#FBEECD" stroke="#FBEECD" stroke-width="13.711"/>
<path d="M2679.1 721.516V728.371H2685.95H2729.05H2735.9V721.516V462.969V456.114H2729.05H2685.95H2679.1V462.969V721.516Z" fill="#FBEECD" stroke="#FBEECD" stroke-width="13.711"/>
<path d="M2370.1 721.516V728.371H2376.96H2420.58H2427.44V721.516V569.839H2488.68C2500 569.839 2509.31 570.873 2516.74 572.809L2516.77 572.818L2516.8 572.826C2524.27 574.693 2530.72 578.084 2536.26 583.003L2536.32 583.064L2536.39 583.123C2542.31 588.106 2547.84 595.155 2552.85 604.524L2552.86 604.533L2552.86 604.543L2617.77 724.772L2619.71 728.371H2623.8H2671.68H2683.16L2677.71 718.263L2611.75 595.905L2611.74 595.89L2611.73 595.876C2603.22 580.265 2593.57 568.237 2582.6 560.311C2587.12 558.884 2591.48 557.261 2595.67 555.441L2595.72 555.419L2595.77 555.397C2615.69 546.378 2631 533.264 2641.37 515.99C2652.04 498.452 2657.26 478.034 2657.26 454.99C2657.26 418.709 2645.89 389.858 2622.44 369.484C2599.14 349.24 2566.46 339.608 2525.38 339.608H2376.96H2370.1V346.464V721.516ZM2580.58 406.525L2580.61 406.557L2580.65 406.587C2593.56 417.036 2600.45 432.752 2600.45 454.99C2600.45 477.983 2593.53 494.238 2580.61 505.019C2567.43 515.672 2547.26 521.549 2519 521.549H2427.44V389.495H2519C2547.25 389.495 2567.4 395.543 2580.58 406.525Z" fill="#FBEECD" stroke="#FBEECD" stroke-width="13.711"/>
<defs>
<clipPath id="clip0_26_5">
<rect width="892.927" height="1058.15" fill="white" transform="translate(0 0.92308)"/>
</clipPath>
</defs>
</svg>
