<svg width="64" height="64" viewBox="0 0 64 64" fill="none" xmlns="http://www.w3.org/2000/svg">
<g clip-path="url(#clip0_64_398)">
<path d="M64 13.3333V21.3333H0V13.3333C0 8.92267 3.58933 5.33333 8 5.33333H16V0H21.3333V5.33333H42.6667V0H48V5.33333H56C60.4107 5.33333 64 8.92267 64 13.3333ZM64 45.3333C64 55.6267 55.624 64 45.3333 64C35.0427 64 26.6667 55.6267 26.6667 45.3333C26.6667 35.04 35.0427 26.6667 45.3333 26.6667C55.624 26.6667 64 35.04 64 45.3333ZM52.552 48.7813L48 44.2293V37.3333H42.6667V46.4373L48.7813 52.552L52.552 48.7813ZM21.3333 45.3333C21.3333 37.7893 24.8213 31.0667 30.264 26.6667H0V64H30.264C24.8213 59.6 21.3333 52.8773 21.3333 45.3333Z" fill="#FBEECD"/>
</g>
<defs>
<clipPath id="clip0_64_398">
<rect width="64" height="64" fill="white"/>
</clipPath>
</defs>
</svg>
